<svg width="663" height="120" viewBox="0 0 663 120" fill="none" xmlns="http://www.w3.org/2000/svg">
<rect x="357" width="306" height="120" rx="10" fill="#2563EB"/>
<path d="M431.4 38.4805L420.902 66.1172H442.289L431.4 38.4805ZM423.979 24.2227H439.994L470.609 96H453.812L447.221 78.9102H416.02L409.623 96H393.607L423.979 24.2227ZM543.381 37.0156H506.076C502.072 37.0156 499.126 37.7643 497.238 39.2617C495.383 40.7591 494.455 43.1354 494.455 46.3906C494.455 48.9948 495.253 50.9479 496.848 52.25C498.443 53.5521 500.819 54.2031 503.977 54.2031H523.947C532.215 54.2031 538.091 55.7656 541.574 58.8906C545.09 62.0156 546.848 67.224 546.848 74.5156C546.848 81.9049 544.829 87.3411 540.793 90.8242C536.757 94.2747 530.409 96 521.75 96H481.564V83.207H519.357C523.654 83.207 526.682 82.5885 528.439 81.3516C530.197 80.082 531.076 77.9987 531.076 75.1016C531.076 72.1068 530.262 69.9746 528.635 68.7051C527.04 67.4355 524.289 66.8008 520.383 66.8008H502.561C494.292 66.8008 488.238 65.1569 484.396 61.8691C480.588 58.5488 478.684 53.3242 478.684 46.1953C478.684 38.5781 480.686 33.0117 484.689 29.4961C488.726 25.9805 495.122 24.2227 503.879 24.2227H543.381V37.0156ZM565.176 24.2227H580.264V58.6953L608.535 24.2227H626.65L597.842 59.2812L626.943 96H607.656L580.264 60.3066V96H565.176V24.2227Z" fill="white"/>
<path d="M41.4141 31.4062C33.9141 31.4062 28.5039 33.7891 25.1836 38.5547C21.9023 43.3203 20.2617 51.1523 20.2617 62.0508C20.2617 71.5039 21.8438 78.1641 25.0078 82.0312C28.1719 85.8984 33.6406 87.832 41.4141 87.832H71.1797V102.832H40.5352C33.7773 102.832 28.4648 102.266 24.5977 101.133C20.7305 99.9609 17.0977 98.0078 13.6992 95.2734C9.28516 91.7578 5.96484 87.1875 3.73828 81.5625C1.55078 75.8984 0.457031 69.1406 0.457031 61.2891C0.457031 46.0547 3.75781 34.8242 10.3594 27.5977C16.9609 20.332 27.1953 16.6992 41.0625 16.6992H71.1797V31.4062H41.4141Z" fill="white"/>
<path d="M78.9727 58.8867C78.9727 44.082 82.5078 33.0664 89.5781 25.8398C96.6875 18.6133 107.488 15 121.98 15C136.59 15 147.391 18.6523 154.383 25.957C161.414 33.2617 164.93 44.5312 164.93 59.7656C164.93 75 161.414 86.2891 154.383 93.6328C147.391 100.977 136.59 104.648 121.98 104.648C107.215 104.648 96.3555 100.957 89.4023 93.5742C82.4492 86.1914 78.9727 74.6289 78.9727 58.8867ZM121.98 29.7656C114.207 29.7656 108.387 32.1875 104.52 37.0312C100.691 41.875 98.7773 49.1992 98.7773 59.0039C98.7773 69.6289 100.633 77.4219 104.344 82.3828C108.094 87.3047 113.973 89.7656 121.98 89.7656C129.871 89.7656 135.711 87.3242 139.5 82.4414C143.328 77.5195 145.242 69.9609 145.242 59.7656C145.242 49.5312 143.328 41.9727 139.5 37.0898C135.711 32.207 129.871 29.7656 121.98 29.7656Z" fill="white"/>
<path d="M305.438 31.6992C298.875 31.6992 293.914 33.3398 290.555 36.6211C287.234 39.9023 285.398 44.9219 285.047 51.6797L335.203 51.7383V66.7383H284.93C284.969 74.2383 286.551 79.6289 289.676 82.9102C292.84 86.1914 298.094 87.832 305.438 87.832H335.203V102.832H304.559C297.801 102.832 292.488 102.266 288.621 101.133C284.754 99.9609 281.121 98.0078 277.723 95.2734C273.309 91.7578 269.988 87.1875 267.762 81.5625C265.574 75.8984 264.48 69.1406 264.48 61.2891C264.48 46.0547 267.781 34.8242 274.383 27.5977C280.984 20.332 291.219 16.6992 305.086 16.6992H335.203V31.6992H305.438Z" fill="white"/>
<path d="M216.434 31.6992H195.457H177.352V16.6992H216.785C230.652 16.6992 240.887 20.332 247.488 27.5977C254.09 34.8242 257.391 46.0547 257.391 61.2891C257.391 69.1406 256.277 75.8984 254.051 81.5625C251.863 87.1875 248.562 91.7578 244.148 95.2734C240.75 98.0078 237.117 99.9609 233.25 101.133C229.383 102.266 224.07 102.832 217.312 102.832H177.352V46.832H195.457V87.832H216.434C224.441 87.832 229.969 85.8203 233.016 81.7969C236.062 77.7734 237.586 70.4297 237.586 59.7656C237.586 49.1406 236.062 41.8164 233.016 37.793C229.969 33.7305 224.441 31.6992 216.434 31.6992Z" fill="white"/>
</svg>
