<svg width="666" height="36" viewBox="0 0 666 36" fill="none" xmlns="http://www.w3.org/2000/svg">
<path d="M2.22656 7.4668H12.0557C13.7158 7.4668 15.0391 7.55469 16.0254 7.73047C17.0117 7.89648 17.7979 8.16504 18.3838 8.53613C19.3604 9.16113 20.0977 9.98145 20.5957 10.9971C21.1035 12.0029 21.3574 13.165 21.3574 14.4834C21.3574 15.7725 21.1523 16.8809 20.7422 17.8086C20.332 18.7266 19.707 19.4883 18.8672 20.0938C18.1641 20.5918 17.3535 20.9482 16.4355 21.1631C15.5273 21.3682 14.1309 21.4707 12.2461 21.4707H6.75293V29H2.22656V7.4668ZM11.9971 11.3047H6.75293V17.6621H12.2754C13.6426 17.6621 14.6582 17.4033 15.3223 16.8857C15.9863 16.3584 16.3184 15.5576 16.3184 14.4834C16.3184 13.3311 15.9912 12.5156 15.3369 12.0371C14.6924 11.5488 13.5791 11.3047 11.9971 11.3047ZM36.6703 11.3047H31.1186V16.7246H36.6703C38.1742 16.7246 39.2191 16.5195 39.8051 16.1094C40.391 15.6992 40.684 14.9961 40.684 14C40.684 13.0137 40.3959 12.3203 39.8197 11.9199C39.2533 11.5098 38.2035 11.3047 36.6703 11.3047ZM26.5922 7.4668H37.7396C40.3373 7.4668 42.2416 7.98926 43.4525 9.03418C44.6635 10.0791 45.2689 11.7148 45.2689 13.9414C45.2689 15.5918 44.893 16.9395 44.141 17.9844C43.3988 19.0293 42.3246 19.7031 40.9184 20.0059L46.2943 29H41.1967L36.4506 20.5332H31.1186V29H26.5922V7.4668ZM49.8006 18.0137C49.8006 14.3125 50.6844 11.5586 52.452 9.75195C54.2293 7.94531 56.9295 7.04199 60.5525 7.04199C64.2049 7.04199 66.9051 7.95508 68.6531 9.78125C70.4109 11.6074 71.2898 14.4248 71.2898 18.2334C71.2898 22.042 70.4109 24.8643 68.6531 26.7002C66.9051 28.5361 64.2049 29.4541 60.5525 29.4541C56.8611 29.4541 54.1463 28.5312 52.408 26.6855C50.6697 24.8398 49.8006 21.9492 49.8006 18.0137ZM60.5525 10.7334C58.6092 10.7334 57.1541 11.3389 56.1873 12.5498C55.2303 13.7607 54.7518 15.5918 54.7518 18.043C54.7518 20.6992 55.2156 22.6475 56.1434 23.8877C57.0809 25.1182 58.5506 25.7334 60.5525 25.7334C62.5252 25.7334 63.9852 25.123 64.9324 23.9023C65.8895 22.6719 66.368 20.7822 66.368 18.2334C66.368 15.6748 65.8895 13.7852 64.9324 12.5645C63.9852 11.3438 62.5252 10.7334 60.5525 10.7334ZM84.3176 20.0352V16.2266H95.0256V29H85.2844C83.4875 29 82.1057 28.8535 81.1389 28.5605C80.1818 28.2676 79.2834 27.7842 78.4436 27.1104C77.34 26.2314 76.51 25.0889 75.9533 23.6826C75.4064 22.2666 75.133 20.5771 75.133 18.6143C75.133 14.8154 75.9582 12.0078 77.6086 10.1914C79.2688 8.375 81.8273 7.4668 85.2844 7.4668H95.0256V11.1729H85.2844C83.507 11.1729 82.2082 11.749 81.3879 12.9014C80.5773 14.0537 80.1721 15.8896 80.1721 18.4092C80.1721 20.7627 80.5773 22.4668 81.3879 23.5215C82.1984 24.5762 83.4973 25.1035 85.2844 25.1035H90.382V20.0352H84.3176ZM110.939 11.3047H105.387V16.7246H110.939C112.443 16.7246 113.488 16.5195 114.074 16.1094C114.66 15.6992 114.953 14.9961 114.953 14C114.953 13.0137 114.665 12.3203 114.088 11.9199C113.522 11.5098 112.472 11.3047 110.939 11.3047ZM100.861 7.4668H112.008C114.606 7.4668 116.51 7.98926 117.721 9.03418C118.932 10.0791 119.538 11.7148 119.538 13.9414C119.538 15.5918 119.162 16.9395 118.41 17.9844C117.668 19.0293 116.593 19.7031 115.187 20.0059L120.563 29H115.465L110.719 20.5332H105.387V29H100.861V7.4668ZM133.854 11.7441L130.705 20.0352H137.121L133.854 11.7441ZM131.628 7.4668H136.433L145.617 29H140.578L138.601 23.873H129.24L127.321 29H122.517L131.628 7.4668ZM149.241 7.4668H155.891L161.384 23.9902L166.877 7.4668H173.498V29H169.06L169.426 12.2275L163.904 29H159.099L153.401 12.0518L153.855 29H149.241V7.4668ZM180.052 7.4668H186.702L192.195 23.9902L197.688 7.4668H204.309V29H199.871L200.237 12.2275L194.715 29H189.91L184.212 12.0518L184.666 29H180.052V7.4668ZM215.623 29H210.892V7.4668H215.623V29ZM222.22 7.4668H227.948L236.766 22.9355L236.546 7.4668H241.175V29H235.917L226.659 12.7109L226.864 29H222.22V7.4668ZM255.492 20.0352V16.2266H266.2V29H256.459C254.662 29 253.28 28.8535 252.313 28.5605C251.356 28.2676 250.458 27.7842 249.618 27.1104C248.515 26.2314 247.685 25.0889 247.128 23.6826C246.581 22.2666 246.308 20.5771 246.308 18.6143C246.308 14.8154 247.133 12.0078 248.783 10.1914C250.443 8.375 253.002 7.4668 256.459 7.4668H266.2V11.1729H256.459C254.682 11.1729 253.383 11.749 252.562 12.9014C251.752 14.0537 251.347 15.8896 251.347 18.4092C251.347 20.7627 251.752 22.4668 252.562 23.5215C253.373 24.5762 254.672 25.1035 256.459 25.1035H261.557V20.0352H255.492ZM285.605 19.0977C285.605 16.3535 285.771 14.3418 286.103 13.0625C286.435 11.7734 287.002 10.7236 287.803 9.91309C288.623 9.08301 289.717 8.46777 291.084 8.06738C292.451 7.66699 294.155 7.4668 296.196 7.4668H303.096V11.2168H295.815C293.852 11.2168 292.422 11.6318 291.523 12.4619C290.635 13.2822 290.176 14.6152 290.146 16.4609H303.096V20.1816H290.146V29H285.605V19.0977ZM306.836 18.0137C306.836 14.3125 307.72 11.5586 309.487 9.75195C311.265 7.94531 313.965 7.04199 317.588 7.04199C321.24 7.04199 323.941 7.95508 325.689 9.78125C327.446 11.6074 328.325 14.4248 328.325 18.2334C328.325 22.042 327.446 24.8643 325.689 26.7002C323.941 28.5361 321.24 29.4541 317.588 29.4541C313.897 29.4541 311.182 28.5312 309.444 26.6855C307.705 24.8398 306.836 21.9492 306.836 18.0137ZM317.588 10.7334C315.645 10.7334 314.19 11.3389 313.223 12.5498C312.266 13.7607 311.787 15.5918 311.787 18.043C311.787 20.6992 312.251 22.6475 313.179 23.8877C314.116 25.1182 315.586 25.7334 317.588 25.7334C319.561 25.7334 321.021 25.123 321.968 23.9023C322.925 22.6719 323.404 20.7822 323.404 18.2334C323.404 15.6748 322.925 13.7852 321.968 12.5645C321.021 11.3438 319.561 10.7334 317.588 10.7334ZM343.609 11.3047H338.057V16.7246H343.609C345.113 16.7246 346.158 16.5195 346.744 16.1094C347.33 15.6992 347.623 14.9961 347.623 14C347.623 13.0137 347.335 12.3203 346.758 11.9199C346.192 11.5098 345.142 11.3047 343.609 11.3047ZM333.531 7.4668H344.678C347.276 7.4668 349.18 7.98926 350.391 9.03418C351.602 10.0791 352.208 11.7148 352.208 13.9414C352.208 15.5918 351.832 16.9395 351.08 17.9844C350.337 19.0293 349.263 19.7031 347.857 20.0059L353.233 29H348.135L343.389 20.5332H338.057V29H333.531V7.4668ZM362.569 7.4668V20.3574C362.569 22.3691 362.931 23.7754 363.653 24.5762C364.386 25.3672 365.641 25.7627 367.418 25.7627C369.195 25.7627 370.445 25.3672 371.168 24.5762C371.891 23.7852 372.252 22.3789 372.252 20.3574V7.4668H376.778V20.4746C376.778 21.998 376.676 23.2139 376.471 24.1221C376.275 25.0303 375.958 25.748 375.519 26.2754C374.659 27.291 373.575 28.0381 372.267 28.5166C370.968 28.9951 369.352 29.2344 367.418 29.2344C365.484 29.2344 363.858 28.9951 362.54 28.5166C361.231 28.0381 360.147 27.291 359.288 26.2754C358.858 25.7578 358.546 25.0596 358.351 24.1807C358.155 23.3018 358.058 22.0664 358.058 20.4746V7.4668H362.569ZM383.288 7.4668H389.938L395.431 23.9902L400.924 7.4668H407.545V29H403.107L403.473 12.2275L397.951 29H393.146L387.448 12.0518L387.902 29H383.288V7.4668Z" fill="white"/>
<rect x="416" y="26" width="250" height="3" fill="white"/>
</svg>
