<svg width="666" height="36" viewBox="0 0 666 36" fill="none" xmlns="http://www.w3.org/2000/svg">
<path d="M2.06543 19.0977C2.06543 16.3535 2.23145 14.3418 2.56348 13.0625C2.89551 11.7734 3.46191 10.7236 4.2627 9.91309C5.08301 9.08301 6.17676 8.46777 7.54395 8.06738C8.91113 7.66699 10.6152 7.4668 12.6562 7.4668H19.5557V11.2168H12.2754C10.3125 11.2168 8.88184 11.6318 7.9834 12.4619C7.09473 13.2822 6.63574 14.6152 6.60645 16.4609H19.5557V20.1816H6.60645V29H2.06543V19.0977ZM23.2963 18.0137C23.2963 14.3125 24.1801 11.5586 25.9477 9.75195C27.725 7.94531 30.4252 7.04199 34.0482 7.04199C37.7006 7.04199 40.4008 7.95508 42.1488 9.78125C43.9066 11.6074 44.7855 14.4248 44.7855 18.2334C44.7855 22.042 43.9066 24.8643 42.1488 26.7002C40.4008 28.5361 37.7006 29.4541 34.0482 29.4541C30.3568 29.4541 27.642 28.5312 25.9037 26.6855C24.1654 24.8398 23.2963 21.9492 23.2963 18.0137ZM34.0482 10.7334C32.1049 10.7334 30.6498 11.3389 29.683 12.5498C28.726 13.7607 28.2475 15.5918 28.2475 18.043C28.2475 20.6992 28.7113 22.6475 29.6391 23.8877C30.5766 25.1182 32.0463 25.7334 34.0482 25.7334C36.0209 25.7334 37.4809 25.123 38.4281 23.9023C39.3852 22.6719 39.8637 20.7822 39.8637 18.2334C39.8637 15.6748 39.3852 13.7852 38.4281 12.5645C37.4809 11.3438 36.0209 10.7334 34.0482 10.7334ZM60.0691 11.3047H54.5174V16.7246H60.0691C61.573 16.7246 62.618 16.5195 63.2039 16.1094C63.7898 15.6992 64.0828 14.9961 64.0828 14C64.0828 13.0137 63.7947 12.3203 63.2186 11.9199C62.6521 11.5098 61.6023 11.3047 60.0691 11.3047ZM49.991 7.4668H61.1385C63.7361 7.4668 65.6404 7.98926 66.8514 9.03418C68.0623 10.0791 68.6678 11.7148 68.6678 13.9414C68.6678 15.5918 68.2918 16.9395 67.5398 17.9844C66.7977 19.0293 65.7234 19.7031 64.3172 20.0059L69.6932 29H64.5955L59.8494 20.5332H54.5174V29H49.991V7.4668ZM79.0295 7.4668V20.3574C79.0295 22.3691 79.3908 23.7754 80.1135 24.5762C80.8459 25.3672 82.1008 25.7627 83.8781 25.7627C85.6555 25.7627 86.9055 25.3672 87.6281 24.5762C88.3508 23.7852 88.7121 22.3789 88.7121 20.3574V7.4668H93.2385V20.4746C93.2385 21.998 93.1359 23.2139 92.9309 24.1221C92.7355 25.0303 92.4182 25.748 91.9787 26.2754C91.1193 27.291 90.0354 28.0381 88.7268 28.5166C87.4279 28.9951 85.8117 29.2344 83.8781 29.2344C81.9445 29.2344 80.3186 28.9951 79.0002 28.5166C77.6916 28.0381 76.6076 27.291 75.7482 26.2754C75.3186 25.7578 75.0061 25.0596 74.8107 24.1807C74.6154 23.3018 74.5178 22.0664 74.5178 20.4746V7.4668H79.0295ZM99.7477 7.4668H106.398L111.891 23.9902L117.384 7.4668H124.005V29H119.567L119.933 12.2275L114.411 29H109.606L103.908 12.0518L104.362 29H99.7477V7.4668ZM144.289 7.4668H154.119C155.779 7.4668 157.102 7.55469 158.088 7.73047C159.075 7.89648 159.861 8.16504 160.447 8.53613C161.423 9.16113 162.161 9.98145 162.659 10.9971C163.166 12.0029 163.42 13.165 163.42 14.4834C163.42 15.7725 163.215 16.8809 162.805 17.8086C162.395 18.7266 161.77 19.4883 160.93 20.0938C160.227 20.5918 159.416 20.9482 158.498 21.1631C157.59 21.3682 156.194 21.4707 154.309 21.4707H148.816V29H144.289V7.4668ZM154.06 11.3047H148.816V17.6621H154.338C155.705 17.6621 156.721 17.4033 157.385 16.8857C158.049 16.3584 158.381 15.5576 158.381 14.4834C158.381 13.3311 158.054 12.5156 157.4 12.0371C156.755 11.5488 155.642 11.3047 154.06 11.3047ZM178.733 11.3047H173.181V16.7246H178.733C180.237 16.7246 181.282 16.5195 181.868 16.1094C182.454 15.6992 182.747 14.9961 182.747 14C182.747 13.0137 182.459 12.3203 181.883 11.9199C181.316 11.5098 180.266 11.3047 178.733 11.3047ZM168.655 7.4668H179.803C182.4 7.4668 184.304 7.98926 185.515 9.03418C186.726 10.0791 187.332 11.7148 187.332 13.9414C187.332 15.5918 186.956 16.9395 186.204 17.9844C185.462 19.0293 184.387 19.7031 182.981 20.0059L188.357 29H183.26L178.513 20.5332H173.181V29H168.655V7.4668ZM191.863 18.0137C191.863 14.3125 192.747 11.5586 194.515 9.75195C196.292 7.94531 198.992 7.04199 202.615 7.04199C206.268 7.04199 208.968 7.95508 210.716 9.78125C212.474 11.6074 213.353 14.4248 213.353 18.2334C213.353 22.042 212.474 24.8643 210.716 26.7002C208.968 28.5361 206.268 29.4541 202.615 29.4541C198.924 29.4541 196.209 28.5312 194.471 26.6855C192.733 24.8398 191.863 21.9492 191.863 18.0137ZM202.615 10.7334C200.672 10.7334 199.217 11.3389 198.25 12.5498C197.293 13.7607 196.815 15.5918 196.815 18.043C196.815 20.6992 197.279 22.6475 198.206 23.8877C199.144 25.1182 200.613 25.7334 202.615 25.7334C204.588 25.7334 206.048 25.123 206.995 23.9023C207.952 22.6719 208.431 20.7822 208.431 18.2334C208.431 15.6748 207.952 13.7852 206.995 12.5645C206.048 11.3438 204.588 10.7334 202.615 10.7334ZM226.38 20.0352V16.2266H237.088V29H227.347C225.55 29 224.169 28.8535 223.202 28.5605C222.245 28.2676 221.346 27.7842 220.506 27.1104C219.403 26.2314 218.573 25.0889 218.016 23.6826C217.469 22.2666 217.196 20.5771 217.196 18.6143C217.196 14.8154 218.021 12.0078 219.671 10.1914C221.332 8.375 223.89 7.4668 227.347 7.4668H237.088V11.1729H227.347C225.57 11.1729 224.271 11.749 223.451 12.9014C222.64 14.0537 222.235 15.8896 222.235 18.4092C222.235 20.7627 222.64 22.4668 223.451 23.5215C224.261 24.5762 225.56 25.1035 227.347 25.1035H232.445V20.0352H226.38ZM253.002 11.3047H247.45V16.7246H253.002C254.506 16.7246 255.551 16.5195 256.137 16.1094C256.723 15.6992 257.016 14.9961 257.016 14C257.016 13.0137 256.728 12.3203 256.151 11.9199C255.585 11.5098 254.535 11.3047 253.002 11.3047ZM242.924 7.4668H254.071C256.669 7.4668 258.573 7.98926 259.784 9.03418C260.995 10.0791 261.601 11.7148 261.601 13.9414C261.601 15.5918 261.225 16.9395 260.473 17.9844C259.73 19.0293 258.656 19.7031 257.25 20.0059L262.626 29H257.528L252.782 20.5332H247.45V29H242.924V7.4668ZM275.917 11.7441L272.768 20.0352H279.184L275.917 11.7441ZM273.691 7.4668H278.496L287.68 29H282.641L280.663 23.873H271.303L269.384 29H264.579L273.691 7.4668ZM291.304 7.4668H297.954L303.447 23.9902L308.94 7.4668H315.561V29H311.123L311.489 12.2275L305.967 29H301.162L295.464 12.0518L295.918 29H291.304V7.4668ZM326.875 29H322.144V7.4668H326.875V29ZM351.68 11.3047H340.489C339.288 11.3047 338.404 11.5293 337.837 11.9785C337.281 12.4277 337.003 13.1406 337.003 14.1172C337.003 14.8984 337.242 15.4844 337.72 15.875C338.199 16.2656 338.912 16.4609 339.859 16.4609H345.85C348.331 16.4609 350.093 16.9297 351.138 17.8672C352.193 18.8047 352.72 20.3672 352.72 22.5547C352.72 24.7715 352.115 26.4023 350.904 27.4473C349.693 28.4824 347.789 29 345.191 29H333.135V25.1621H344.473C345.762 25.1621 346.671 24.9766 347.198 24.6055C347.725 24.2246 347.989 23.5996 347.989 22.7305C347.989 21.832 347.745 21.1924 347.256 20.8115C346.778 20.4307 345.953 20.2402 344.781 20.2402H339.434C336.954 20.2402 335.137 19.7471 333.985 18.7607C332.842 17.7646 332.271 16.1973 332.271 14.0586C332.271 11.7734 332.872 10.1035 334.073 9.04883C335.284 7.99414 337.203 7.4668 339.83 7.4668H351.68V11.3047ZM362.921 11.2461H355.963V7.49609H374.596V11.2461H367.608V29H362.921V11.2461ZM375.436 7.4668H380.534L385.851 15.6846L391.242 7.4668H396.5L388.18 19.4932V29H383.654V19.4932L375.436 7.4668ZM407.946 11.1436C406.071 11.1436 404.719 11.7393 403.888 12.9307C403.068 14.1221 402.658 16.0801 402.658 18.8047C402.658 21.168 403.054 22.833 403.845 23.7998C404.636 24.7666 406.003 25.25 407.946 25.25H415.388V29H407.726C406.037 29 404.709 28.8584 403.742 28.5752C402.775 28.2822 401.867 27.7939 401.017 27.1104C399.914 26.2314 399.084 25.0889 398.527 23.6826C397.98 22.2666 397.707 20.5771 397.707 18.6143C397.707 14.8057 398.532 11.998 400.182 10.1914C401.833 8.375 404.391 7.4668 407.858 7.4668H415.388V11.1436H407.946ZM438.493 11.3047L426.364 25.1914H438.493V29H420.315V25.1914L432.605 11.3047H420.315V7.4668H438.493V11.3047ZM444.959 7.4668H450.686L459.504 22.9355L459.285 7.4668H463.914V29H458.655L449.397 12.7109L449.602 29H444.959V7.4668ZM479.285 11.2168C477.645 11.2168 476.404 11.627 475.564 12.4473C474.734 13.2676 474.275 14.5225 474.188 16.2119L486.727 16.2266V19.9766H474.158C474.168 21.8516 474.563 23.1992 475.345 24.0195C476.136 24.8398 477.449 25.25 479.285 25.25H486.727V29H479.065C477.376 29 476.048 28.8584 475.081 28.5752C474.114 28.2822 473.206 27.7939 472.356 27.1104C471.253 26.2314 470.423 25.0889 469.866 23.6826C469.319 22.2666 469.046 20.5771 469.046 18.6143C469.046 14.8057 469.871 11.998 471.521 10.1914C473.172 8.375 475.73 7.4668 479.197 7.4668H486.727V11.2168H479.285Z" fill="white"/>
<rect x="495" y="26" width="171" height="3" fill="white"/>
</svg>
